<?xml version="1.0" encoding="UTF-8"?>
<svg id="Layer_1" data-name="Layer 1" xmlns="http://www.w3.org/2000/svg" viewBox="0 0 250 113.1">
  <defs>
    <style>
      .cls-1 {
        fill: #5b7132;
      }

      .cls-1, .cls-2, .cls-3, .cls-4 {
        stroke-width: 0px;
      }

      .cls-2 {
        fill: none;
      }

      .cls-3 {
        fill: #5c7132;
      }

      .cls-4 {
        fill: #fff;
      }
    </style>
  </defs>
  <rect class="cls-3" x="65.47" y="11.91" width=".01" height="53.57"/>
  <path class="cls-3" d="M71.37,65.48s.04.08.06.12v-.12h-.06ZM65.47,50.8s0,.02.01.03V11.91h-.01v38.89Z"/>
  <path class="cls-3" d="M71.37,65.48s.04.08.06.12v-.12h-.06ZM65.47,65.48h.01V11.91h-.01v53.57Z"/>
  <path class="cls-1" d="M0,0v41.67c0,19.69,16.02,35.71,35.71,35.71h35.72v-.12c2.07,3.07,4.33,5.93,6.76,8.6,16.48,18.07,41.24,27.24,73.6,27.24s57.11-9.17,73.59-27.24c16.34-17.92,24.62-44.8,24.62-79.91V0H0ZM107.14,11.91h47.62v11.9h-47.62v-11.9ZM23.81,62.28c-7.11-4.12-11.91-11.82-11.91-20.61V11.91h11.91v50.37ZM41.67,53.57h-11.91V11.91h11.91v41.66ZM59.52,65.48h-11.9V11.91h11.9v53.57ZM101.19,89.35c-4.38-2.62-8.35-5.7-11.91-9.22v-38.46h-11.9v23.81h-5.95v.12s-.04-.08-.06-.12h-5.9V11.91h35.72v77.44ZM119.05,97.03c-4.22-1.22-8.19-2.72-11.91-4.48V29.76h11.91v67.27ZM178.57,98.53c-8.09,1.78-17.01,2.66-26.78,2.66s-18.7-.88-26.79-2.66V29.76h29.76v11.91h-17.86v47.62h41.67v9.24ZM196.42,92.55c-3.71,1.77-7.68,3.26-11.9,4.48v-55.36h-11.91v41.66h-11.9V11.91h11.9v23.81h11.91V11.91h11.9v80.64ZM226.19,64.07v-22.4h-11.91v38.47c-3.56,3.52-7.53,6.59-11.9,9.21V11.91h35.63c-.61,21.21-4.52,38.58-11.82,52.16Z"/>
  <path class="cls-2" d="M23.81,11.91v50.37c-7.11-4.12-11.91-11.82-11.91-20.61V11.91h11.91Z"/>
  <rect class="cls-2" x="29.76" y="11.91" width="11.91" height="41.66"/>
  <path class="cls-2" d="M119.05,29.76v67.27c-4.22-1.22-8.19-2.72-11.91-4.48V29.76h11.91Z"/>
  <path class="cls-2" d="M178.57,89.29v9.24c-8.09,1.78-17.01,2.66-26.78,2.66s-18.7-.88-26.79-2.66V29.76h29.76v11.91h-17.86v47.62h41.67Z"/>
  <rect class="cls-2" x="107.14" y="11.91" width="47.62" height="11.9"/>
  <path class="cls-2" d="M196.42,11.91v80.64c-3.71,1.77-7.68,3.26-11.9,4.48v-55.36h-11.91v41.66h-11.9V11.91h11.9v23.81h11.91V11.91h11.9Z"/>
  <path class="cls-2" d="M238.01,11.91h-35.63v77.44c4.37-2.62,8.34-5.69,11.9-9.21v-38.47h11.91v22.4c7.3-13.58,11.21-30.95,11.82-52.16ZM214.28,35.72v-11.91h11.91v11.91h-11.91Z"/>
  <rect class="cls-1" x="214.28" y="23.81" width="11.91" height="11.91"/>
  <path class="cls-3" d="M65.47,11.91v53.57h.01V11.91h-.01ZM71.37,65.48s.04.08.06.12v-.12h-.06Z"/>
  <rect class="cls-2" x="47.62" y="11.91" width="11.9" height="53.57"/>
  <path class="cls-4" d="M65.47,11.91v53.57h.01V11.91h-.01Z"/>
  <path class="cls-2" d="M65.48,11.91v53.57h11.9v-23.81h11.9v38.46c3.56,3.52,7.53,6.6,11.91,9.22V11.91h-35.71ZM89.28,35.72h-11.9v-11.91h11.9v11.91Z"/>
  <rect class="cls-1" x="77.38" y="23.81" width="11.9" height="11.91"/>
</svg>